<?xml version="1.0" encoding="UTF-8" standalone="no"?>
<!-- Created with Inkscape (http://www.inkscape.org/) -->

<svg
   width="1280px"
   height="1024px"
   viewBox="0 0 1280 1024"
   version="1.1"
   id="SVGRoot"
   sodipodi:docname="Circle.svg"
   inkscape:version="1.1 (c68e22c387, 2021-05-23)"
   xmlns:inkscape="http://www.inkscape.org/namespaces/inkscape"
   xmlns:sodipodi="http://sodipodi.sourceforge.net/DTD/sodipodi-0.dtd"
   xmlns="http://www.w3.org/2000/svg"
   xmlns:svg="http://www.w3.org/2000/svg">
  <sodipodi:namedview
     id="namedview8300"
     pagecolor="#505050"
     bordercolor="#eeeeee"
     borderopacity="1"
     inkscape:pageshadow="0"
     inkscape:pageopacity="0"
     inkscape:pagecheckerboard="0"
     inkscape:document-units="px"
     showgrid="false"
     inkscape:zoom="0.33139731"
     inkscape:cx="686.48718"
     inkscape:cy="952.02947"
     inkscape:window-width="1264"
     inkscape:window-height="985"
     inkscape:window-x="-41"
     inkscape:window-y="211"
     inkscape:window-maximized="0"
     inkscape:current-layer="layer1" />
  <defs
     id="defs8295">
    <inkscape:path-effect
       effect="spiro"
       id="path-effect8518"
       is_visible="true"
       lpeversion="1" />
    <inkscape:path-effect
       effect="spiro"
       id="path-effect8514"
       is_visible="true"
       lpeversion="1" />
    <inkscape:path-effect
       effect="spiro"
       id="path-effect8510"
       is_visible="true"
       lpeversion="1" />
    <inkscape:path-effect
       effect="spiro"
       id="path-effect8393"
       is_visible="true"
       lpeversion="1" />
    <inkscape:path-effect
       effect="spiro"
       id="path-effect8389"
       is_visible="true"
       lpeversion="1" />
    <inkscape:path-effect
       effect="spiro"
       id="path-effect8385"
       is_visible="true"
       lpeversion="1" />
  </defs>
  <g
     inkscape:label="Layer 1"
     inkscape:groupmode="layer"
     id="layer1">
    <a
       id="a982"
       transform="matrix(1.1302231,0,0,1.1473555,-47.692088,-21.034828)">
      <path
         style="fill:#7e36f4;stroke:#000000;stroke-width:1px;stroke-linecap:butt;stroke-linejoin:miter;stroke-opacity:1"
         d="M -21.122682,-33.192787 1246.2382,-42.245365 V 980.69594 l -1273.395934,-3.0175 z"
         id="path867" />
    </a>
    <g
       id="g995"
       transform="translate(347.0155,168.98146)">
      <g
         id="g265"
         transform="translate(-289.68267,-179.7153)">
        <path
           style="fill:#05285b;stroke:#000000;stroke-width:1px;stroke-linecap:butt;stroke-linejoin:miter;stroke-opacity:1"
           d="m 1188.9053,481.29541 c -9.6773,1.77746 -18.5634,7.52778 -24.1494,15.62754 -5.5861,8.09976 -7.8034,18.44922 -6.0259,28.12655 1.7775,9.67733 7.5278,18.56336 15.6275,24.14941 8.0998,5.58606 18.4493,7.80334 28.1266,6.02588 9.6773,-1.77746 18.5634,-7.52778 24.1494,-15.62754 5.5861,-8.09976 7.8034,-18.44922 6.0259,-28.12655 -1.7775,-9.67733 -7.5278,-18.56336 -15.6275,-24.14941 -8.0998,-5.58606 -18.4493,-7.80334 -28.1266,-6.02588 z"
           id="path8516"
           inkscape:path-effect="#path-effect8518"
           inkscape:original-d="m 1188.9053,481.29541 c -4.5273,-24.64413 9.0535,49.28725 13.5788,73.92938 4.5253,24.64213 -9.0516,-49.28526 -13.5788,-73.92938 z" />
        <path
           style="fill:#05285b;stroke-width:1.50876"
           d="m 657.42161,177.99111 c -9.00847,-4.5601 -15.18879,-13.27226 -16.53496,-23.3087 -1.21912,-9.08921 5.31949,-21.47913 14.0289,-26.58319 10.14857,-5.94746 17.05514,-6.31696 27.01269,-1.44519 9.42471,4.61108 15.58285,13.11645 16.96668,23.43368 1.22518,9.13444 -5.31703,21.4777 -14.11712,26.63489 -9.9215,5.81439 -17.66634,6.17352 -27.35619,1.26851 z"
           id="path8627" />
        <path
           style="fill:#05285b;stroke-width:1.50876"
           d="M 3.7718996,1114.2838 C -70.38072,1098.4241 -121.53368,1035.2912 -121.43561,959.75283 c 0.0745,-57.4074 34.05462,-112.04141 85.97967,-138.24021 93.04503,-46.94589 206.1432,9.96085 224.06672,112.74194 14.75657,84.62044 -42.44843,165.97784 -127.08175,180.73674 -17.2372,3.0059 -41.8019,2.705 -57.7571304,-0.7075 z"
           id="path8666" />
        <path
           style="fill:#0b5cd5;stroke-width:1.50876"
           d="m 231.27725,169.18771 c -8.5069,-6.46311 -4.15898,-20.47859 6.35293,-20.47859 10.49739,0 14.8616,14.01644 6.37196,20.46467 -3.3258,2.52607 -9.40957,2.53273 -12.72489,0.0139 z"
           id="path8783" />
        <path
           style="fill:#0b5cd5;stroke-width:1.50876"
           d="M 1059.1516,340.80794 C 978.95236,323.22343 915.21335,269.10005 886.18435,193.93443 875.98869,167.5345 873.30629,153.02762 872.46348,119.72969 c -0.86502,-34.175829 0.71162,-49.840817 7.22645,-71.799671 22.82324,-76.927808 81.21442,-136.690676 156.07587,-159.742299 26.3159,-8.10329 39.6587,-9.65139 76.1925,-8.84021 28.9885,0.64365 34.0172,1.14533 47.2839,4.71712 45.956,12.37284 82.5006,33.771602 114.3584,66.962891 31.5252,32.844802 53.3165,76.06592 61.0274,121.042706 1.9447,11.343454 2.307,21.099618 1.737,46.771653 -0.807,36.34759 -2.8983,47.3666 -14.736,77.64345 -24.8246,63.49319 -79.5033,115.17032 -144.6313,136.69189 -24.9939,8.25927 -31.5186,9.18164 -69.5657,9.83434 -30.5264,0.52369 -37.239,0.21732 -48.2804,-2.20362 z"
           id="path8859" />
        <path
           style="fill:#0b5cd5;stroke-width:1.50876"
           d="M 341.73482,742.39796 C 293.7946,732.32224 251.3296,698.56841 231.45835,654.74332 c -39.21198,-86.48017 7.6078,-187.84801 98.91215,-214.15122 72.39223,-20.85494 152.4389,16.01329 183.50008,84.51726 39.30854,86.69311 -6.90594,186.77799 -98.96075,214.31537 -11.88851,3.55635 -16.67787,4.12253 -38.47346,4.54818 -16.99498,0.33191 -28.00656,-0.16785 -34.70155,-1.57495 z"
           id="path8898" />
        <path
           style="fill:#3485fd;stroke-width:1.50876"
           d="m 662.09889,935.23127 c -7.95184,-2.81811 -19.31974,-14.7746 -21.49463,-22.60755 -3.98319,-14.34558 -0.40569,-27.26246 10.33262,-37.3069 15.16872,-14.18856 36.07288,-13.38624 50.40366,1.93452 14.18856,15.16872 13.38625,36.07287 -1.93452,50.40366 -10.57418,9.89091 -23.4168,12.49897 -37.30713,7.57627 z"
           id="path9013" />
        <path
           style="fill:#5a9cfe;stroke-width:1.50876"
           d="m 633.68047,503.82214 c -19.35755,-10.04708 -23.13156,-31.21775 -8.10091,-45.44283 8.97586,-8.4948 19.56432,-10.32762 29.66089,-5.13419 18.50656,9.51932 22.5334,29.28948 8.89993,43.69502 -8.53002,9.01308 -20.94824,11.81881 -30.45991,6.882 z"
           id="path9052" />
        <path
           style="fill:#094bac;stroke-width:1.50876"
           d="m 903.3623,962.61344 c -26.42282,-8.0136 -43.48501,-16.9378 -63.17029,-33.0407 -27.94724,-22.8613 -49.94471,-59.14707 -55.89983,-92.20926 -1.24999,-6.9398 -2.18337,-21.68942 -2.19596,-34.70155 -0.0186,-19.22627 0.53809,-24.78806 3.69992,-36.96469 15.29922,-58.91933 61.34365,-104.25443 121.08678,-119.22143 24.19238,-6.06074 65.85607,-4.11724 88.8621,4.14518 53.12448,19.07921 94.19338,64.44418 106.55288,117.699 2.8704,12.36833 3.1583,17.12721 2.5553,42.24537 -0.649,27.03539 -0.8983,28.9507 -5.5507,42.64013 -15.5176,45.65955 -44.954,78.38045 -89.5738,99.56865 -23.39981,11.1117 -28.99826,12.252 -63.7343,12.9826 -28.83669,0.6064 -30.72784,0.467 -42.6321,-3.1433 z"
           id="path9128" />
      </g>
    </g>
  </g>
</svg>
